<svg id="Layer_2" data-name="Layer 2" xmlns="http://www.w3.org/2000/svg" width="24" height="24" viewBox="0 0 24 24">
  <g id="eye-off">
    <rect id="Rectangle_69" data-name="Rectangle 69" width="24" height="24" fill="currentColor" opacity="0"/>
    <path id="Path_412" data-name="Path 412" d="M4.71,3.29A1,1,0,1,0,3.29,4.71l5.63,5.63a3.5,3.5,0,0,0,4.74,4.74l5.63,5.63a1,1,0,1,0,1.42-1.42ZM12,13.5A1.5,1.5,0,0,1,10.5,12v-.07l1.56,1.56Z" fill="currentColor"/>
    <path id="Path_413" data-name="Path 413" d="M12.22,17c-4.3.1-7.12-3.59-8-5A13.7,13.7,0,0,1,6.46,9.28L5,7.87A15.89,15.89,0,0,0,2.13,11.5a1,1,0,0,0,0,1c.63,1.09,4,6.5,9.89,6.5h.25a9.48,9.48,0,0,0,3.23-.67l-1.58-1.58a7.74,7.74,0,0,1-1.7.25Z" fill="currentColor"/>
    <path id="Path_414" data-name="Path 414" d="M21.87,11.5C21.23,10.39,17.7,4.82,11.73,5a9.48,9.48,0,0,0-3.23.67l1.58,1.58A7.74,7.74,0,0,1,11.78,7c4.29-.11,7.11,3.59,8,5a13.7,13.7,0,0,1-2.29,2.72L19,16.13a15.89,15.89,0,0,0,2.91-3.63,1,1,0,0,0-.04-1Z" fill="currentColor"/>
  </g>
</svg>
