<svg id="Layer_2" data-name="Layer 2" xmlns="http://www.w3.org/2000/svg" width="24" height="24" viewBox="0 0 24 24">
  <g id="options">
    <rect id="Rectangle_91" data-name="Rectangle 91" width="24" height="24" fill="#aeaeae" opacity="0"/>
    <path id="Path_425" data-name="Path 425" d="M7,14.18V3A1,1,0,0,0,5,3V14.18a3,3,0,0,0,0,5.64V21a1,1,0,0,0,2,0V19.82a3,3,0,0,0,0-5.64ZM6,18a1,1,0,1,1,1-1A1,1,0,0,1,6,18Z" fill="#aeaeae"/>
    <path id="Path_426" data-name="Path 426" d="M21,13a3,3,0,0,0-2-2.82V3a1,1,0,0,0-2,0v7.18a3,3,0,0,0,0,5.64V21a1,1,0,0,0,2,0V15.82A3,3,0,0,0,21,13Zm-3,1a1,1,0,1,1,1-1A1,1,0,0,1,18,14Z" fill="#aeaeae"/>
    <path id="Path_427" data-name="Path 427" d="M15,5a3,3,0,1,0-4,2.82V21a1,1,0,0,0,2,0V7.82A3,3,0,0,0,15,5ZM12,6a1,1,0,1,1,1-1A1,1,0,0,1,12,6Z" fill="#aeaeae"/>
  </g>
</svg>
