<svg xmlns="http://www.w3.org/2000/svg" width="45" height="40" viewBox="0 0 45 40">
  <g id="Layer_2" data-name="Layer 2" transform="translate(0.102 -0.286)">
    <g id="folder" transform="translate(-0.102 0.488)">
      <rect id="Rectangle_45" data-name="Rectangle 45" width="45" height="40" transform="translate(0 -0.202)" fill="#fff" opacity="0"/>
      <path id="Path_407" data-name="Path 407" d="M37.785,36.786H7.112A4.954,4.954,0,0,1,2,32.028V8.258A4.954,4.954,0,0,1,7.112,3.5h9.406a2.08,2.08,0,0,1,1.575.724l5.317,6.226H37.724A5.176,5.176,0,0,1,41.346,11.8,4.742,4.742,0,0,1,42.9,15.209V32.028A4.954,4.954,0,0,1,37.785,36.786Zm-31.7-13.2v8.439a.888.888,0,0,0,.326.628.968.968,0,0,0,.7.214H37.785a.968.968,0,0,0,.7-.214.888.888,0,0,0,.326-.628V15.209a.888.888,0,0,0-.326-.628.968.968,0,0,0-.7-.214H22.449a2.08,2.08,0,0,1-1.575-.724L15.558,7.416H7.112a.968.968,0,0,0-.7.214.888.888,0,0,0-.326.628Z" transform="translate(0.102 -0.488)" fill="#fff"/>
    </g>
  </g>
</svg>
