<svg xmlns="http://www.w3.org/2000/svg" width="43.172" height="32.454" viewBox="0 0 43.172 32.454">
  <g id="Layer_2" data-name="Layer 2" transform="translate(-2.998 -6)">
    <g id="trending-up" transform="translate(2.998 6)">
      <path id="Path_405" data-name="Path 405" d="M46.153,8.7a2.378,2.378,0,0,0,0-.568,1.9,1.9,0,0,0-.12-.46,3.045,3.045,0,0,0-.216-.379,2,2,0,0,0-.336-.46l-.288-.189a1.6,1.6,0,0,0-.455-.27h-.479a1.68,1.68,0,0,0-.5-.379H31.769a2.565,2.565,0,0,0-2.4,2.7,2.565,2.565,0,0,0,2.4,2.7h6.784L28.965,24.147,18.608,17.2a2.215,2.215,0,0,0-3.068.595L3.554,34.019A2.944,2.944,0,0,0,3.008,36a2.825,2.825,0,0,0,.857,1.834,2.238,2.238,0,0,0,1.534.622,2.3,2.3,0,0,0,1.846-.974L17.913,23.038l10.236,6.924a2.212,2.212,0,0,0,3.044-.568L41.358,16.007v6.22a2.415,2.415,0,1,0,4.794,0Z" transform="translate(-2.998 -6)" fill="#fff"/>
    </g>
  </g>
</svg>
